<?xml version="1.0" encoding="utf-8"?>
<!-- Generated by IcoMoon.io -->
<!DOCTYPE svg PUBLIC "-//W3C//DTD SVG 1.1//EN" "http://www.w3.org/Graphics/SVG/1.1/DTD/svg11.dtd">
<svg version="1.1" xmlns="http://www.w3.org/2000/svg" xmlns:xlink="http://www.w3.org/1999/xlink" width="512" height="512" viewBox="0 0 512 512">
<g>
</g>
	<path d="M486.205 221.010h-20.337c-6.195 0-12.636-4.762-14.356-10.629l-27.658-64.676c-2.98-5.294-2.017-13.168 2.345-17.5l13.783-13.752c4.301-4.352 4.301-11.397 0-15.719l-33.157-33.167c-4.342-4.331-11.377-4.331-15.78 0l-14.899 15.001c-4.382 4.311-12.36 5.509-17.736 2.683l-56.259-22.477c-5.898-1.659-10.721-8.059-10.721-14.151v-20.869c0-6.072-4.997-11.059-11.079-11.059h-46.919c-6.124 0-11.12 4.987-11.12 11.059v20.869c0 6.093-4.803 12.554-10.599 14.356l-65.28 27.934c-5.222 3.072-13.005 2.017-17.377-2.243l-14.623-14.663c-4.301-4.311-11.376-4.311-15.719 0l-33.136 33.198c-4.362 4.332-4.362 11.407 0 15.688l15.923 16.005c4.362 4.322 5.561 12.237 2.724 17.664l-22.18 55.757c-1.639 5.939-7.998 10.701-14.142 10.701h-22.119c-6.082 0-11.039 4.987-11.039 11.079v46.93c0 6.164 4.956 11.161 11.039 11.161h22.119c6.144 0 12.585 4.721 14.356 10.599l27.239 64.185c3.103 5.264 2.017 13.118-2.181 17.459l-15.309 15.186c-4.322 4.281-4.322 11.336 0 15.637l33.198 33.178c4.342 4.342 11.376 4.342 15.657 0l16.302-16.179c4.322-4.342 12.165-5.499 17.602-2.622l56.924 22.702c5.796 1.7 10.599 8.1 10.599 14.142v21.76c0 6.082 4.997 11.059 11.12 11.059h46.919c6.082 0 11.079-4.976 11.079-11.059v-21.76c0-6.041 4.782-12.442 10.721-14.244l63.601-26.983c5.305-3 13.077-1.935 17.438 2.304l14.356 14.459c4.322 4.281 11.397 4.281 15.719 0l33.219-33.219c4.322-4.301 4.322-11.377 0-15.698l-15.319-15.237c-4.26-4.342-5.478-12.237-2.58-17.664l23.060-57.385c1.598-5.918 8.038-10.639 14.244-10.701h20.337c6.062 0 11.079-4.997 11.079-11.1v-46.93c0-6.083-5.017-11.070-11.079-11.070zM256.010 365.179c-60.303 0-109.179-48.896-109.179-109.179 0-60.304 48.876-109.168 109.179-109.168 60.283 0 109.159 48.865 109.159 109.168 0 60.283-48.875 109.179-109.159 109.179z" fill="#000000" />
</svg>
