<?xml version="1.0" encoding="utf-8"?>
<!-- Generated by IcoMoon.io -->
<!DOCTYPE svg PUBLIC "-//W3C//DTD SVG 1.1//EN" "http://www.w3.org/Graphics/SVG/1.1/DTD/svg11.dtd">
<svg version="1.1" xmlns="http://www.w3.org/2000/svg" xmlns:xlink="http://www.w3.org/1999/xlink" width="512" height="512" viewBox="0 0 512 512">
<g>
</g>
	<path d="M473.62 254.587c0 120.084-97.7 217.764-217.785 217.764-120.064 0-217.785-97.68-217.785-217.764 0-120.064 97.721-217.754 217.785-217.754 120.085 0.010 217.785 97.7 217.785 217.754zM255.836 17.92c-130.499 0-236.697 106.178-236.697 236.667 0 130.519 106.199 236.697 236.697 236.697 130.509 0 236.688-106.178 236.688-236.697 0.010-130.488-106.178-236.667-236.688-236.667z" fill="#000000" />
	<path d="M380.334 257.874c0 69.97-56.914 126.884-126.863 126.884-69.929 0-126.832-56.914-126.832-126.884 0-69.929 56.903-126.832 126.832-126.832 69.95 0 126.863 56.904 126.863 126.832zM253.47 102.626c-85.576 0-155.238 69.653-155.238 155.238 0 85.596 69.662 155.259 155.238 155.259 85.627 0 155.259-69.663 155.259-155.259 0-85.586-69.632-155.238-155.259-155.238z" fill="#000000" />
	<path d="M241.817 294.748v203.858h28.375v-203.889c-4.464 1.649-9.175 2.673-14.213 2.673-5.007 0-9.738-1.024-14.162-2.642z" fill="#000000" />
	<path d="M270.203 217.282v-203.888h-28.375v203.879c4.423-1.618 9.155-2.642 14.172-2.642 5.028 0 9.738 1.024 14.203 2.652z" fill="#000000" />
	<path d="M504.259 241.817h-209.552c1.639 4.444 2.683 9.155 2.683 14.172s-1.045 9.758-2.683 14.213h209.552v-28.386z" fill="#000000" />
	<path d="M217.282 241.817h-209.541v28.375h209.541c-1.618-4.454-2.642-9.185-2.642-14.213s1.024-9.718 2.642-14.162z" fill="#000000" />
</svg>
